<?xml version="1.0" encoding="UTF-8"?><svg id="Layer_1_copy_2" xmlns="http://www.w3.org/2000/svg" viewBox="0 0 1821.95 1222.73"><defs><style>.cls-1{fill:#e5e5e5;}</style></defs><path class="cls-1" d="M342.24,425.93h78.5l35,250.5h1l35-250.5h78.5v350h-52v-265h-1l-40,265h-46l-40-265h-1v265h-48v-350Z"/><path class="cls-1" d="M635.74,425.93h74.5l57,350h-55l-10-69.5v1h-62.5l-10,68.5h-51l57-350ZM695.74,659.93l-24.5-173h-1l-24,173h49.5Z"/><path class="cls-1" d="M775.73,425.93h55v300h90.5v50h-145.5v-350Z"/><polygon class="cls-1" points="1154.22 596.93 1214.72 425.93 1162.72 425.93 1124.72 538.93 1123.72 538.93 1086.72 425.93 1050.73 425.93 1028.72 425.93 997.23 425.93 959.73 554.43 958.73 554.43 921.23 425.93 862.73 425.93 929.23 626.93 929.23 775.93 984.23 775.93 984.23 626.93 1040.09 458.07 1089.22 596.93 1018.32 796.8 1077.98 775.93 1118.72 653.93 1119.72 653.93 1159.72 775.93 1217.72 775.93 1154.22 596.93"/><path class="cls-1" d="M1225.72,425.93h55v350h-55v-350Z"/><path class="cls-1" d="M1348.21,425.93h74.5l57,350h-55l-10-69.5v1h-62.5l-10,68.5h-51l57-350ZM1408.21,659.93l-24.5-173h-1l-24,173h49.5Z"/></svg>